<svg id="088e367b-0d5e-4c35-a750-58437f2a4f60" data-name="logo" xmlns="http://www.w3.org/2000/svg" viewBox="0 0 356.98 333.54"><title>logo-transparent-background</title><g id="b47be5fd-27c3-4a47-a518-666feb54ab7a" data-name="&lt;Group&gt;"><g id="855f3cb8-43e0-4411-8007-17aade3c6b83" data-name="&lt;Group&gt;"><g id="80391da2-cfed-4eac-b186-38d97be7b4ec" data-name="&lt;Group&gt;"><path id="f5bbccd5-f097-4ff9-bf1e-209f7af0e6bd" data-name="&lt;Path&gt;" d="M207.2,232.84a20.23,20.23,0,0,1-11.13-33.56l73.83-82.11a20.23,20.23,0,1,1,29.8,27.37l-73.83,82.11A20.21,20.21,0,0,1,207.2,232.84Z" transform="translate(-71.51 -71.28)" fill="#df7f81"/></g><g id="137e6d9d-0174-4270-b398-ecdba3492818" data-name="&lt;Group&gt;"><path id="cf5be798-2ebc-4322-a0b6-734af625cee4" data-name="&lt;Path&gt;" d="M300.08,316.68a20.23,20.23,0,0,1-12.4-33.07L392.82,159.39a20.23,20.23,0,0,1,30.88,26.14L318.55,309.75A20.22,20.22,0,0,1,300.08,316.68Z" transform="translate(-71.51 -71.28)" fill="#df7f81"/></g><g id="babc50e2-25cf-4ec1-9a1a-c8455e460cc6" data-name="&lt;Group&gt;"><path id="98e1ee18-dadf-421e-816b-01116c2fabcb" data-name="&lt;Path&gt;" d="M93.82,388.25a26.23,26.23,0,0,1-18.55-39.46L124,267.94C86.59,178.51,187.14,101.36,191.55,98a20.23,20.23,0,0,1,24.37,32.29h0c-.84.64-83.42,64.3-52.5,126.55a26.56,26.56,0,0,1-1,25.66l-35.39,58.71,45.75-10.1a26,26,0,0,1,19.46,3.31c35.05,21.75,83.08,38.75,105.71,24.7,41.39-25.7,47.41-41,47.74-41.49a20.23,20.23,0,0,1,34,22c-1.53,2.37-11.16,23.33-60.38,53.9C272.25,422.76,202.88,387.79,176,371.9l-72.57,16A26.2,26.2,0,0,1,93.82,388.25Z" transform="translate(-71.51 -71.28)" fill="#df7f81"/></g><g id="a5ce26b9-6326-40c1-a84b-cadcc9eb423f" data-name="&lt;Group&gt;"><g id="6ec68908-7495-451b-82d4-c5af8e4ad723" data-name="&lt;Group&gt;"><path id="ba6101b0-0b77-4b16-96d0-5c67124af75a" data-name="&lt;Path&gt;" d="M255.75,276.35a21.52,21.52,0,0,1-10.81-4.94,21.31,21.31,0,0,1-2.28-30.18L293.26,183a21.65,21.65,0,0,1,30.38-2.27A21.31,21.31,0,0,1,325.93,211l-50.62,58.19A21.61,21.61,0,0,1,255.75,276.35Z" transform="translate(-71.51 -71.28)" fill="#df7f81"/></g><g id="d23ec412-d5c7-4a6f-9f9a-2941881dd1f3" data-name="&lt;Group&gt;"><path id="524b248f-618a-451b-9df5-d1aaa073ad96" data-name="&lt;Path&gt;" d="M342.44,177.47a21.39,21.39,0,0,1-11.85-35.55l19.8-22.81a21.66,21.66,0,0,1,30.44-1.21,21.31,21.31,0,0,1,1.22,30.24L362.24,171A21.62,21.62,0,0,1,342.44,177.47Z" transform="translate(-71.51 -71.28)" fill="#df7f81"/></g><ellipse id="40bf8cdc-6cc9-45ef-8e43-7dcf60226fe6" data-name="&lt;Path&gt;" cx="330.1" cy="22.6" rx="21.6" ry="21.46" fill="#df7f81"/></g><circle id="2cd64758-63f0-41b1-aebf-f1e7d6fec7e2" data-name="&lt;Path&gt;" cx="327.37" cy="214.18" r="20.29" fill="#df7f81"/><circle id="cafc5075-e950-4769-a7ca-f4becf91d9eb" data-name="&lt;Path&gt;" cx="318.52" cy="91.56" r="20.29" transform="translate(143.77 335.22) rotate(-87.89)" fill="#df7f81"/></g></g></svg>