<svg version="1" xmlns="http://www.w3.org/2000/svg" width="1517.333" height="1517.333" viewBox="0 0 1138.000000 1138.000000"><path d="M557.9 37.7c-1.3 1.6-1.2 1.7.4.4 1.6-1.3 2.1-2.1 1.3-2.1-.2 0-1 .8-1.7 1.7z"/><path d="M537.5 48.8c-54.1 30.9-88.3 60.3-110.3 94.7-4.7 7.4-12.6 25.6-14.7 34-3.2 12.4-3.9 18.5-3.8 31.2.3 34.8 16.3 71.9 49.7 115.3 4.4 5.7 19.3 23.6 22.1 26.6.5.6 5 5.5 10 11 9.4 10.4 44.6 45.7 62.5 62.9 5.8 5.5 18.1 17.2 27.4 26 32.8 31 38.2 36.2 58 56 41.5 41.5 63.6 67.3 82.8 97.1 12.5 19.4 17.4 28.5 23.3 43.3 8.1 20.5 11.4 36.3 11.5 55.6.1 42-19.3 79.2-62.1 118.9-8.7 8.1-8 7.8 13.6-5.9 17.3-11 33.8-22.5 42.1-29.4 1.7-1.4 5.3-4.4 8-6.6 39.7-32.6 64.3-68.7 71.9-105.5 2.9-13.8 2.6-33-.8-51.1-2.2-11.4-10.1-32.3-17.9-46.9-10.4-19.6-29.9-47.1-46.3-65.4-1.1-1.3-5.1-5.8-9-10.2-8.7-9.9-50-51.2-65.9-65.9-6.6-6.1-13.1-12.1-14.6-13.5-1.5-1.4-5.4-4.9-8.6-7.9-18-16.4-25-22.8-26.4-24.1-.9-.8-4.1-3.8-7.1-6.5-24.3-22.3-33.3-30.9-53.9-51.5-13-12.9-25.8-26-28.5-29.1-7.8-8.7-15.3-17.3-17.7-20.5-1.2-1.6-2.5-3.1-2.8-3.4-4.2-3.7-21.5-28.6-28.6-41-5.7-9.9-7.1-12.7-12.2-24-2.8-6.4-7.9-23.3-9.3-31-1.5-8.4-1.9-24.6-.8-33.5 1-7.9 4.6-22.5 6-24 .5-.5.9-1.5.9-2.3 0-2.6 8.8-19.1 14.9-28 10.5-15.2 26.5-31.9 44.1-46 11.8-9.4 11.6-9.2 10.5-9.2-.6 0-8.7 4.4-18 9.8z"/><path d="M601 78.3c-12.8 7.8-23.6 16.6-30.4 24.7-7.5 9.1-12.7 22.8-12.7 34-.1 26.7 14.3 52.3 54.1 96.1.8.9 19.5 19.8 41.5 42 41.5 41.9 47.4 48 56.5 58.9 3 3.6 5.7 6.7 6 7 3.8 3.8 16.2 21.9 21.6 31.5 9.7 17.2 13.9 35.8 11.1 49.5-1.9 9.6-8.3 20.6-17.1 29.9-5.5 5.8-5.7 5.9 8.9-3.9 42.3-28.3 52.3-63.6 29.9-105.9-13.1-24.8-31.4-46.5-75.3-89.6-64.5-63.2-75.8-75.2-89.5-95.4-21.7-31.8-23-55.7-4.2-75.8 3.2-3.5 5.7-6.3 5.5-6.3-.2 0-2.9 1.5-5.9 3.3zM430 321.8c-52.6 28.8-91.6 60.3-113.5 91.7-16.3 23.3-23.7 45.7-23.7 71.5-.1 36.3 15.2 72.3 49.7 117 2.7 3.6 5.2 6.7 5.5 7 .3.3 2.5 3 5 6 20.9 25.6 51.9 57.2 111 113 32.2 30.4 36.3 34.4 56.9 55 22.8 22.8 31.3 31.6 41.6 43.5 3.9 4.4 7.2 8.2 7.5 8.5 6.4 6.4 28.5 35.7 37.7 50 40.4 63 42.9 118.9 7.9 171.4-9.3 13.9-11.5 16.4-28.6 33.7-16.7 16.7-16.7 16.7 5.5 2.6 46.6-29.5 78.9-58.6 99-89.2 40-60.8 30.2-124.4-30.8-200.3-11-13.6-12.5-15.4-23.2-27.1-13-14.4-65.3-65.7-79.9-78.4-1.1-1-6.5-6-12-11-5.4-5.1-10.8-10-12-11-1.2-1-4.4-4-7.2-6.5-2.8-2.6-9.7-9-15.4-14.2-20.4-18.8-27.8-25.8-48.6-46.5-11.6-11.6-25.1-25.5-29.9-31-4.9-5.5-9.2-10.2-9.5-10.5-1.4-1.3-9.5-11.6-17.4-22-4.7-6.3-8.9-12-9.4-12.5-3.8-4.9-12.5-19.9-18.3-31.5-10.6-21.4-15.2-39.4-15.3-60-.1-14.5 1.2-23.3 5-34.8 5.5-16.5 15.2-33.2 27.9-48.2 9.4-11.1 33.5-33.1 43.3-39.5 3.6-2.4 4.9-3.5 3.9-3.5-.1 0-5.8 3.1-12.7 6.8z"/><path d="M387.4 676.3c-22.8 14.6-33.3 26.6-38.4 43.6-1.9 6.2-2.2 8.8-1.7 17 .9 16.8 6 29.9 19.4 50 14.1 21.2 27.6 36.1 80.4 89.1 38.2 38.2 44.1 44.5 57.2 60.5 29.4 35.8 39.6 64 31.6 87.7-1.7 5.2-6.7 14.7-8.9 16.8-.3.3-3 3.2-6 6.4l-5.5 5.8 7-4.3c14.7-9 27-19.7 36.3-31.5 3.8-4.7 9.9-18.4 11.2-24.9 4.2-20.8-2-42.6-19.7-69.5-13.5-20.4-29.9-38.8-64.7-73-63.7-62.3-76.9-76.3-90.5-96-6.1-8.8-13-21.8-14.9-28-6-19.3-2.5-35.2 10.9-49.1 3.1-3.3 5.4-5.9 5-5.8-.3 0-4.2 2.4-8.7 5.2z"/></svg>